<svg height="512pt" viewBox="0 -24 512 512" width="512pt" xmlns="http://www.w3.org/2000/svg"><path d="m447.535156 155.390625c-24.523437-34.738281-64.546875-55.476563-107.074218-55.476563-25.023438 0-50.160157 2.421876-74.71875 7.199219l-228.605469 44.449219c-21.519531 4.183594-37.136719 23.132812-37.136719 45.058594 0 17.9375 8.109375 34.554687 22.242188 45.582031 14.132812 11.035156 32.21875 14.875 49.617187 10.523437l258.070313-64.515624c22.632812-5.660157 46.636718-1.324219 65.859374 11.890624l92.710938 63.738282c7.34375 5.046875 15.335938 2.066406 19.171875-1.816406 5.105469-5.171876 5.769531-13.257813 1.582031-19.191407zm0 0"/><path d="m310.90625 392.394531c-6.292969 5.035157-46.496094 41.269531-111.140625 41.269531s-104.84375-36.234374-111.140625-41.269531c-6.472656-5.167969-15.910156-4.113281-21.078125 2.359375-5.171875 6.472656-4.113281 15.910156 2.359375 21.082032 7.375 5.902343 54.460938 47.828124 129.859375 47.828124 75.390625 0 122.464844-41.910156 129.859375-47.828124 6.472656-5.171876 7.53125-14.609376 2.359375-21.082032-5.164063-6.472656-14.601563-7.53125-21.078125-2.359375zm0 0"/><path d="m497 19.582031c-8.285156 0-15 6.714844-15 15v12.640625c-42.949219-37.4375-100.851562-54.0625-157.441406-44.628906l-103.160156 17.191406c-8.171876 1.363282-13.691407 9.089844-12.328126 17.261719 1.359376 8.171875 9.097657 13.6875 17.261719 12.328125l103.15625-17.191406c46.691407-7.78125 94.449219 5.460937 130.414063 35.597656h-11.101563c-8.285156 0-15 6.714844-15 15s6.714844 15 15 15h48.199219c8.285156 0 15-6.714844 15-15v-48.199219c0-8.285156-6.714844-15-15-15zm0 0"/></svg>