<svg id="Capa_1" enable-background="new 0 0 512 512" height="512" viewBox="0 0 512 512" width="512" xmlns="http://www.w3.org/2000/svg"><g><path d="m233.67 512h218.331l11.443-48.453h-241.217z"/><path d="m144.68 0h42.384v88.576h-42.384z"/><path d="m0 0h42.34v88.576h-42.34z"/><path d="m72.34 0h42.34v88.576h-42.34z"/><path d="m187.064 118.576h-187.064v36.564l57.79 39.94v316.92h70.984v-316.873l58.29-39.94z"/><path d="m385.63 254.536-11.488 10.518c-11.892 10.887-33.034 12.755-40.202 12.549-13.392-.421-38.304 1.633-54.867 20.183-12.532 14.034-14.552 31.636-13.469 45.657h146.48c21.721-43.144-26.454-88.907-26.454-88.907z"/><path d="m173.671 372.717v.725 29.275h34.19l7.281 30.83h255.387l7.281-30.83h34.19v-29.275-.725z"/></g></svg>