<?xml version="1.0" encoding="iso-8859-1"?>
<!-- Generator: Adobe Illustrator 19.0.0, SVG Export Plug-In . SVG Version: 6.00 Build 0)  -->
<svg version="1.1" id="Capa_1" xmlns="http://www.w3.org/2000/svg" xmlns:xlink="http://www.w3.org/1999/xlink" x="0px" y="0px"
	 viewBox="0 0 386.696 386.696" style="enable-background:new 0 0 386.696 386.696;" xml:space="preserve">
<g>
	<g>
		<path d="M369.98,78.7l-22.2-27.2l-192.2,156.7l13.9,17c2.8,3.4,2.3,8.5-1.1,11.3l-43.4,35.3l3.7,18.7l239.6-195
			C373.38,91.3,374.08,83.8,369.98,78.7z"/>
	</g>
</g>
<g>
	<g>
		<path d="M59.08,18.4c-1-5.9-4.5-11.1-9.5-14.5c-3.7-2.5-8.1-3.9-12.7-3.9c-1.5,0-3,0.1-4.4,0.4c-12.3,2.4-20.4,14.4-18,26.7
			l53.6,274.5c1.1,5.9,4.2,11.3,8.6,15.3c-14.3,12.7-26.6,27.6-36.4,44.2l-8,13.5c-2.2,3.8-1,8.7,2.8,11c3.8,2.2,8.7,1,11-2.8
			l8-13.5c10.2-17.2,23.3-32.5,38.8-45.1c2.7,0.3,5.4,0.1,8-0.4l17.2-3.4L59.08,18.4z"/>
	</g>
</g>
<g>
</g>
<g>
</g>
<g>
</g>
<g>
</g>
<g>
</g>
<g>
</g>
<g>
</g>
<g>
</g>
<g>
</g>
<g>
</g>
<g>
</g>
<g>
</g>
<g>
</g>
<g>
</g>
<g>
</g>
</svg>
